<?xml version="1.0" encoding="UTF-8"?>
<svg id="_레이어_2" data-name="레이어 2" xmlns="http://www.w3.org/2000/svg" viewBox="0 0 195.85 195.04">
  <defs>
    <style>
      .cls-1 {
        fill: #379e9f;
      }
    </style>
  </defs>
  <g id="_레이어_1-2" data-name="레이어 1">
    <path class="cls-1" d="M195,100.32l.85-92.25-62.13,57.63c7.47,8.49,12.01,19.62,12.01,31.82,0,26.62-21.58,48.21-48.21,48.21s-48.21-21.58-48.21-48.21,21.58-48.21,48.21-48.21c10.63,0,20.44,3.45,28.41,9.27l36.25-34.06C144.97,9.27,122.33,0,97.52,0,43.66,0,0,43.66,0,97.52s43.66,97.52,97.52,97.52c27.13,0,53.43-11.56,71.8-31.52,11.35-12.34,19.15-27.45,22.96-43.52l.13.12.2-1.51c1.27-5.72,2.04-11.55,2.28-17.42l.11-.87Z"/>
  </g>
</svg>