<?xml version="1.0" encoding="UTF-8"?>
<svg id="_레이어_1" data-name="레이어 1" xmlns="http://www.w3.org/2000/svg" viewBox="0 0 674.29 500.41">
  <defs>
    <style>
      .cls-1 {
        fill: #379e9f;
      }
    </style>
  </defs>
  <path class="cls-1" d="M309.5,263.68l1.05-114.08-76.84,71.27c9.24,10.5,14.85,24.27,14.85,39.35,0,32.92-26.69,59.61-59.61,59.61s-59.61-26.69-59.61-59.61,26.69-59.61,59.61-59.61c13.14,0,25.28,4.26,35.14,11.46l44.83-42.12c-21.28-18.87-49.28-30.33-79.96-30.33-66.61,0-120.6,53.99-120.6,120.6s53.99,120.6,120.6,120.6c33.55,0,66.08-14.29,88.79-38.98,14.03-15.26,23.68-33.95,28.4-53.82l.16.15.24-1.87c1.57-7.07,2.52-14.29,2.82-21.54l.14-1.08Z"/>
  <g>
    <path class="cls-1" d="M127.04,496.39v-41.44c0-8.34,6.39-15.52,14.72-15.93,8.9-.44,16.28,6.68,16.28,15.48v42.38c0,1.93,1.57,3.5,3.5,3.5h0c1.93,0,3.5-1.57,3.5-3.5v-41.84c0-12.24-9.56-22.65-21.79-23.02-8.63-.27-16.21,4.36-20.21,11.29-4-6.94-11.58-11.56-20.21-11.29-12.24.38-21.79,10.78-21.79,23.02v41.88c0,1.93,1.57,3.5,3.5,3.5h0c1.93,0,3.5-1.57,3.5-3.5v-41.96c0-8.34,6.39-15.52,14.72-15.93,8.9-.44,16.28,6.68,16.28,15.48v41.89c0,2.2,1.78,3.99,3.99,4h0c2.22.01,4.02-1.79,4.02-4Z"/>
    <path class="cls-1" d="M209.38,433.57c-17.95,0-32.5,14.55-32.5,32.5s14.55,32.5,32.5,32.5,32.5-14.55,32.5-32.5-14.55-32.5-32.5-32.5ZM209.38,492.46c-14.57,0-26.39-11.81-26.39-26.39s11.81-26.39,26.39-26.39,26.39,11.81,26.39,26.39-11.81,26.39-26.39,26.39Z"/>
    <path class="cls-1" d="M275.25,497.78l-31.29-60.45c-.76-1.47-.19-3.28,1.29-4.04,1.47-.76,3.28-.19,4.04,1.29l26.08,50.4,27.31-50.31c.79-1.46,2.61-2,4.07-1.21,1.46.79,2,2.61,1.21,4.07l-32.71,60.26Z"/>
    <g>
      <path class="cls-1" d="M327.94,456.48h39.14c-.96-2.46-2.28-4.74-3.89-6.78-.4-.5-.82-.99-1.26-1.47-.87-.95-1.82-1.85-2.83-2.67-.5-.41-1.02-.8-1.55-1.17-.27-.18-.55-.37-.82-.54-.82-.53-1.67-1.02-2.55-1.45-.29-.14-.59-.28-.89-.42-.6-.27-1.21-.52-1.83-.74-2.8-1.01-5.81-1.56-8.96-1.56h-.01c-.36,0-.72.01-1.08.02-.17.01-.33.02-.5.03-.37.02-.74.05-1.11.09-.26.02-.52.05-.77.09-.19.02-.39.05-.58.08-.15.02-.31.05-.46.08-.27.04-.54.09-.81.15-.38.07-.75.16-1.12.26-.29.06-.57.14-.85.23-.12.02-.24.06-.35.1-7.66,2.31-13.85,8.01-16.82,15.36-.16.37-.3.74-.42,1.11-.59,1.65-1.02,3.38-1.26,5.16-.05.31-.09.63-.11.94-.04.33-.07.67-.09,1,0,.08,0,.15,0,.23-.01.09-.01.17-.01.26-.02.4-.03.79-.03,1.19v.02c0,.4.01.79.03,1.19,0,.08,0,.17.01.26,0,.08,0,.15,0,.23.02.34.05.67.09,1,.02.3.06.6.11.9.02.19.05.38.08.56.05.39.12.78.21,1.16.08.43.18.86.29,1.28.11.42.23.84.36,1.25,2.53,8.16,8.92,14.62,17.02,17.25.02,0,.04.01.05.02.34.11.69.22,1.04.31.05.01.1.02.15.04.27.08.55.15.84.21.18.05.36.09.55.13.24.06.48.1.72.14.12.03.24.05.37.07.27.05.54.09.81.12.3.05.6.09.9.11.03.01.06.02.09.01.34.05.67.07,1.01.09.17.01.35.02.52.03.09,0,.18.01.27.01.28.01.57.01.85.01h.01c7.98,0,15.12-3.54,19.96-9.13.59-.68,1.42-1.02,2.26-1.02.65,0,1.3.2,1.85.62,1.43,1.08,1.6,3.13.43,4.48-5.96,6.84-14.72,11.16-24.5,11.16-18.71,0-33.73-15.81-32.42-34.8,1.11-16.13,14.25-29.16,30.39-30.14,15.48-.94,28.81,8.97,33.09,22.85.34,1.09.61,2.21.83,3.35.22,1.09.37,2.21.47,3.35h-46.83c-1.6,0-3.05-1.09-3.37-2.66-.43-2.15,1.2-4.04,3.28-4.04Z"/>
      <g>
        <path class="cls-1" d="M342.49,492.46c-.37,0-.75,0-1.12-.02"/>
        <path class="cls-1" d="M340.85,492.41c-.34-.02-.67-.05-1.01-.09"/>
        <path class="cls-1" d="M339.75,492.31c-.3-.02-.6-.06-.9-.11"/>
        <path class="cls-1" d="M336.95,491.87c-.19-.03-.37-.08-.55-.13"/>
        <path class="cls-1" d="M316.94,472.66c-.11-.42-.21-.85-.29-1.28"/>
        <path class="cls-1" d="M316.36,469.66c-.05-.3-.08-.6-.11-.9-.05-.41-.08-.82-.1-1.23"/>
        <path class="cls-1" d="M316.14,467.27c-.02-.39-.03-.79-.03-1.19"/>
        <path class="cls-1" d="M336.06,440.48c-.29.07-.57.15-.85.23"/>
        <path class="cls-1" d="M339.03,439.91c-.2.02-.39.05-.58.08"/>
        <path class="cls-1" d="M341.41,439.7c-.16,0-.33.02-.5.03"/>
        <path class="cls-1" d="M353.29,441.98c-.6-.26-1.21-.51-1.83-.74"/>
        <path class="cls-1" d="M356.73,443.85c-.82-.53-1.67-1.01-2.55-1.45"/>
        <path class="cls-1" d="M359.1,445.56c-.5-.4-1.02-.79-1.55-1.17"/>
        <path class="cls-1" d="M363.19,449.7c-.41-.51-.83-1-1.26-1.47"/>
        <path class="cls-1" d="M316.16,464.38c.02-.33.05-.67.09-1-.05.41-.08.82-.1,1.23,0-.08,0-.15,0-.23Z"/>
        <path class="cls-1" d="M334.32,491.16c-8.1-2.63-14.49-9.09-17.02-17.25,2.55,8.12,8.98,14.59,17.02,17.25Z"/>
      </g>
    </g>
    <path class="cls-1" d="M59.77,466.07c0,15.54-13.51,27.99-29.4,26.21-12.1-1.35-21.85-11.1-23.2-23.2-1.77-15.89,10.67-30.4,26.21-30.4,3.12,0,8.11.54,10.89,1.54,1.59.57,3.36-.12,4.19-1.59h0c1.07-1.91.14-4.3-1.93-5.04-4.15-1.47-10.68-2.15-15.4-1.84-16.52,1.09-29.92,15.45-31.05,31.97-1.33,19.5,14.09,35.73,33.3,35.73s33.38-14.95,33.38-33.38c0-1.35-.09-2.69-.25-4h.25l-.16-51.55c0-1.67-1.14-3.18-2.78-3.51-2.25-.45-4.23,1.27-4.22,3.44l.13,35.15.03,20.48"/>
  </g>
</svg>