<?xml version="1.0" encoding="UTF-8"?>
<svg id="_레이어_1" data-name="레이어_1" xmlns="http://www.w3.org/2000/svg" xmlns:xlink="http://www.w3.org/1999/xlink" version="1.1" viewBox="0 0 287 92.1">
  <!-- Generator: Adobe Illustrator 29.1.0, SVG Export Plug-In . SVG Version: 2.1.0 Build 142)  -->
  <defs>
    <style>
      .st0 {
        fill: #2681ff;
      }

      .st1 {
        fill: url(#_무제_그라디언트);
      }

      .st2 {
        fill: none;
        stroke: #8993a4;
        stroke-miterlimit: 10;
        stroke-width: .6px;
      }

      .st3 {
        fill: #0052cc;
      }

      .st4 {
        fill: #253858;
      }
    </style>
    <linearGradient id="_무제_그라디언트" data-name="무제 그라디언트" x1="33.4" y1="50.8" x2="23.3" y2="33.4" gradientTransform="translate(0 94) scale(1 -1)" gradientUnits="userSpaceOnUse">
      <stop offset="0" stop-color="#0052cc"/>
      <stop offset=".9" stop-color="#2684ff"/>
    </linearGradient>
  </defs>
  <g id="logo">
    <path class="st1" d="M28.1,40.3c-.4-.5-1.1-.6-1.6-.2-.1.1-.2.2-.3.4l-9.5,19.1c-.3.6,0,1.2.5,1.5.2,0,.3.1.5.1h13.3c.4,0,.8-.2,1-.6,2.9-5.9,1.2-14.9-3.9-20.3Z"/>
    <path class="st0" d="M35.1,22.9c-4.8,7.4-5.4,16.9-1.5,24.8l6.4,12.8c.2.4.6.6,1,.6h13.3c.6,0,1.1-.5,1.1-1.2,0-.2,0-.3-.1-.5l-18.3-36.6c-.3-.5-.9-.8-1.4-.5-.2.1-.4.3-.5.5Z"/>
    <path class="st3" d="M33.4,66c0,.8.4,1.4,1.8,1.6.8.2,1,.3,1,.6s-.2.4-.8.4c-.7,0-1.4-.2-2-.6v1.2c.6.3,1.3.5,2,.4,1.5,0,2-.7,2-1.6M37.4,68.2c0-.9-.5-1.3-1.8-1.6-.8-.2-.9-.3-.9-.6s.3-.4.8-.4c.6,0,1.2.2,1.8.4v-1.2c-.5-.2-1.1-.4-1.7-.4-1.3,0-2,.6-2,1.5"/>
    <polygon class="st3" points="52.1 64.5 52.1 69.7 53.2 69.7 53.2 65.8 53.7 66.8 55.2 69.7 56.6 69.7 56.6 64.5 55.5 64.5 55.5 67.9 55.1 66.9 53.8 64.5 52.1 64.5"/>
    <rect class="st3" x="43.8" y="64.5" width="1.2" height="5.2"/>
    <path class="st3" d="M42.5,68.2c0-.9-.5-1.3-1.8-1.6-.8-.2-.9-.3-.9-.6s.3-.4.8-.4c.6,0,1.2.2,1.8.4v-1.2c-.5-.2-1.1-.4-1.7-.4-1.3,0-2,.6-2,1.5s.4,1.4,1.8,1.6c.8.2,1,.3,1,.6s-.2.4-.8.4c-.7,0-1.4-.2-2-.6v1.2c.6.3,1.3.5,2,.4,1.5,0,2-.7,2-1.6"/>
    <polygon class="st3" points="24 64.5 24 69.7 26.5 69.7 26.9 68.6 25.2 68.6 25.2 64.5 24 64.5"/>
    <polygon class="st3" points="19.1 64.5 19.1 65.7 20.5 65.7 20.5 69.7 21.7 69.7 21.7 65.7 23.1 65.7 23.1 64.5 19.1 64.5"/>
    <path class="st3" d="M17.3,64.5h-1.6l-1.8,5.2h1.4l.3-.9c.6.2,1.3.2,1.9,0l.3.9h1.4l-1.8-5.2ZM16.5,67.9c-.2,0-.5,0-.7,0l.7-2.3.7,2.3c-.2,0-.4,0-.7,0Z"/>
    <path class="st3" d="M30.8,64.5h-1.6l-1.8,5.2h1.4l.3-.9c.6.2,1.3.2,1.9,0l.3.9h1.4l-1.8-5.2ZM30,67.9c-.2,0-.5,0-.7,0l.7-2.3.7,2.3c-.2,0-.4,0-.7,0Z"/>
    <path class="st3" d="M49.4,64.5h-1.6l-1.8,5.2h1.4l.3-.9c.6.2,1.3.2,1.9,0l.3.9h1.4l-1.8-5.2ZM48.6,67.9c-.2,0-.5,0-.7,0l.7-2.3.7,2.3c-.2,0-.4,0-.7,0Z"/>
    <line class="st2" x1="79.3" y1="88" x2="79.3" y2="4.1"/>
  </g>
  <g id="type">
    <path class="st4" d="M103.8,25.5c4.3,0,6.3,2.2,6.3,5.7s-2.1,5.8-6.3,5.8h-3.4v5.6h-2.4v-17.1h5.8ZM107.7,31.2c0-2.1-1.2-3.5-4.2-3.5h-3.2v7h3.2c3,.1,4.2-1.3,4.2-3.5Z"/>
    <path class="st4" d="M115.6,42.7c-2.1,0-3.5-1-3.5-3.4v-15.1h2.2v14.8c0,1.2.8,1.6,1.7,1.6.2,0,.4,0,.7,0v2c-.4,0-.8,0-1.1,0Z"/>
    <path class="st4" d="M127.6,40.2c-.8,1.7-2.5,2.7-4.4,2.6-3.5,0-5.2-2.9-5.2-6.8s1.8-6.8,5.5-6.8c1.8,0,3.4.9,4.1,2.5v-2.3h2.2v13h-2.2v-2.3ZM123.8,40.8c2,0,3.8-1.3,3.8-4.2v-1c0-2.9-1.6-4.2-3.5-4.2s-3.8,1.7-3.8,4.7,1.2,4.6,3.6,4.6Z"/>
    <path class="st4" d="M138.4,40.4c.5,0,.9,0,1.4-.2v2.2c-.5.1-1,.2-1.5.2-2.8,0-4.1-1.6-4.1-4.1v-6.9h-2.1v-2.1h2.1v-2.8h2.2v2.8h3.5v2.1h-3.5v6.8c0,1,.7,1.9,1.7,1.9.1,0,.3,0,.4,0Z"/>
    <path class="st4" d="M143.8,24.6c.9,0,1.6.7,1.6,1.6s-.7,1.6-1.6,1.6c-.9,0-1.6-.7-1.6-1.6h0c0-.8.5-1.5,1.4-1.6,0,0,.1,0,.2,0ZM142.7,29.6h2.2v13h-2.2v-13Z"/>
    <path class="st4" d="M159.3,42.6h-2.2v-7.9c0-2.3-.9-3.4-3.1-3.4s-3.5,1.4-3.5,4v7.2h-2.2v-13h2.2v2.1c.8-1.5,2.4-2.4,4.1-2.4,3,0,4.7,2,4.7,5.6v7.6Z"/>
    <path class="st4" d="M162.2,29.6h2.2v7.8c0,2.3.9,3.4,3.1,3.4s3.5-1.4,3.5-4v-7.2h2.2v13h-2.2v-2.1c-.8,1.5-2.4,2.4-4.1,2.4-3,0-4.7-2-4.7-5.6v-7.6Z"/>
    <path class="st4" d="M187.7,42.6h-2.2v-7.9c0-2.3-.9-3.4-3.1-3.4s-3.5,1.4-3.5,4v7.2h-2.2v-13h2.2v2.1c.8-1.5,2.4-2.4,4.2-2.4,2-.1,3.9,1.2,4.4,3.2.7-2,2.6-3.2,4.6-3.2,2.9,0,4.5,2,4.5,5.6v7.6h-2.2v-7.2c0-2.7-.9-4-3.1-4s-3.5,1.4-3.5,4v7.2Z"/>
    <path class="st4" d="M102.7,68.8c-2.1.1-4.3-.3-6.2-1.3v-2.4c2,.9,4.1,1.4,6.3,1.4,2.6,0,3.5-1,3.5-2.5s-.9-2.3-4.2-3.1c-3.8-.9-5.6-2.3-5.6-5.1s2-4.6,6-4.6c1.8,0,3.6.4,5.2,1.2v2.3c-1.6-.9-3.5-1.3-5.3-1.3-2.2,0-3.6.8-3.6,2.3s1.1,2.1,4.1,2.9c3.6.9,5.6,2.1,5.6,5.2s-1.8,5-6,5Z"/>
    <path class="st4" d="M110.7,62.1c0-3.9,2.3-6.7,6.2-6.7s6.1,2.8,6.1,6.7-2.3,6.8-6.1,6.8-6.2-2.8-6.2-6.8ZM112.9,62.1c0,2.5,1.2,4.7,4,4.7s4-2.2,4-4.7-1.2-4.7-4-4.7-4,2.2-4,4.7Z"/>
    <path class="st4" d="M129.1,68.7c-2.1,0-3.5-1-3.5-3.4v-15.1h2.2v14.8c0,1.2.8,1.6,1.7,1.6.2,0,.4,0,.6,0v2c-.4,0-.8,0-1.2,0Z"/>
    <path class="st4" d="M132.1,55.6h2.2v7.8c0,2.3.9,3.4,3.1,3.4s3.5-1.4,3.5-4v-7.2h2.2v13h-2.2v-2.1c-.8,1.5-2.4,2.4-4.1,2.4-3,0-4.7-2.1-4.7-5.6v-7.6Z"/>
    <path class="st4" d="M151.7,66.4c.5,0,.9,0,1.4-.2v2.2c-.5.1-1,.2-1.5.2-2.8,0-4.1-1.6-4.1-4.1v-6.9h-2.1v-2.1h2.1v-2.8h2.2v2.8h3.5v2.1h-3.5v6.8c0,1,.7,1.9,1.7,1.9.1,0,.2,0,.4,0Z"/>
    <path class="st4" d="M157.1,50.6c.9,0,1.6.7,1.6,1.6s-.7,1.6-1.6,1.6-1.6-.7-1.6-1.6h0c0-.8.5-1.5,1.4-1.6,0,0,.1,0,.2,0ZM156,55.6h2.2v13h-2.2v-13Z"/>
    <path class="st4" d="M160.8,62.1c0-3.9,2.3-6.7,6.2-6.7s6.1,2.8,6.1,6.7-2.3,6.8-6.1,6.8-6.2-2.8-6.2-6.8ZM163,62.1c0,2.5,1.2,4.7,4,4.7s4-2.2,4-4.7-1.2-4.7-4-4.7-4,2.2-4,4.7h0Z"/>
    <path class="st4" d="M186.8,68.6h-2.2v-7.8c0-2.3-.9-3.4-3.1-3.4s-3.5,1.4-3.5,4v7.2h-2.2v-13h2.3v2.1c.8-1.5,2.4-2.4,4.1-2.4,3,0,4.7,2.1,4.7,5.6v7.6Z"/>
    <path class="st4" d="M200.8,51.5c4.3,0,6.3,2.2,6.3,5.7s-2.1,5.8-6.3,5.8h-3.4v5.6h-2.3v-17.1h5.8ZM204.8,57.2c0-2.1-1.2-3.5-4.2-3.5h-3.1v7h3.1c3,.1,4.2-1.3,4.2-3.5h0Z"/>
    <path class="st4" d="M218,66.2c-.8,1.7-2.5,2.7-4.4,2.6-3.5,0-5.2-2.9-5.2-6.8s1.8-6.8,5.5-6.8c1.8,0,3.4.9,4.1,2.6v-2.3h2.2v13h-2.2v-2.3ZM214.2,66.8c2,0,3.8-1.3,3.8-4.2v-1c0-2.9-1.6-4.2-3.5-4.2s-3.8,1.7-3.8,4.7,1.3,4.6,3.6,4.6h0Z"/>
    <path class="st4" d="M223.6,55.6h2.2v2.3c.8-1.8,2.7-2.8,4.6-2.5v2.2c-2.9-.3-4.6.6-4.6,3.3v7.7h-2.2v-13Z"/>
    <path class="st4" d="M237.5,66.4c.5,0,.9,0,1.4-.2v2.2c-.5.1-1,.2-1.5.2-2.8,0-4.1-1.6-4.1-4.1v-6.9h-2.1v-2.1h2.1v-2.8h2.2v2.8h3.5v2.1h-3.5v6.8c0,1,.7,1.9,1.7,1.9.1,0,.2,0,.4,0Z"/>
    <path class="st4" d="M252.8,68.6h-2.2v-7.8c0-2.3-.9-3.4-3.1-3.4s-3.5,1.4-3.5,4v7.2h-2.2v-13h2.2v2.1c.8-1.5,2.4-2.4,4.1-2.4,3,0,4.7,2.1,4.7,5.6v7.6Z"/>
    <path class="st4" d="M262.1,68.8c-4.9,0-7-2.8-7-6.8s2.2-6.7,6.1-6.7,5.6,2.8,5.6,6.7v1h-9.5c.3,2.2,1.7,3.6,4.8,3.6,1.4,0,2.7-.2,4-.7v2.1c-1.3.6-2.7.8-4.1.8ZM257.4,61.1h7.2c-.1-2.4-1.2-3.8-3.5-3.8s-3.5,1.5-3.8,3.8h0Z"/>
    <path class="st4" d="M269.6,55.6h2.2v2.3c.8-1.8,2.7-2.8,4.6-2.5v2.2c-2.9-.3-4.6.6-4.6,3.3v7.7h-2.2v-13Z"/>
  </g>
</svg>