<?xml version="1.0" encoding="UTF-8" standalone="no"?>
<!-- Generator: Adobe Illustrator 21.0.0, SVG Export Plug-In . SVG Version: 6.00 Build 0)  -->

<svg
   version="1.1"
   id="Layer_1"
   x="0px"
   y="0px"
   viewBox="0 0 168 67"
   xml:space="preserve"
   sodipodi:docname="zabbix_certified_partner.svg"
   width="168"
   height="67"
   inkscape:version="1.2.1 (9c6d41e410, 2022-07-14)"
   xmlns:inkscape="http://www.inkscape.org/namespaces/inkscape"
   xmlns:sodipodi="http://sodipodi.sourceforge.net/DTD/sodipodi-0.dtd"
   xmlns:xlink="http://www.w3.org/1999/xlink"
   xmlns="http://www.w3.org/2000/svg"
   xmlns:svg="http://www.w3.org/2000/svg"
   xmlns:rdf="http://www.w3.org/1999/02/22-rdf-syntax-ns#"
   xmlns:cc="http://creativecommons.org/ns#"
   xmlns:dc="http://purl.org/dc/elements/1.1/"><metadata
   id="metadata5655"><rdf:RDF><cc:Work
       rdf:about=""><dc:format>image/svg+xml</dc:format><dc:type
         rdf:resource="http://purl.org/dc/dcmitype/StillImage" /></cc:Work></rdf:RDF></metadata><defs
   id="defs5653" /><sodipodi:namedview
   pagecolor="#ffffff"
   bordercolor="#666666"
   borderopacity="1"
   objecttolerance="10"
   gridtolerance="10"
   guidetolerance="10"
   inkscape:pageopacity="0"
   inkscape:pageshadow="2"
   inkscape:window-width="1787"
   inkscape:window-height="925"
   id="namedview5651"
   showgrid="false"
   inkscape:zoom="4.8318964"
   inkscape:cx="128.8314"
   inkscape:cy="72.435328"
   inkscape:window-x="45"
   inkscape:window-y="55"
   inkscape:window-maximized="0"
   inkscape:current-layer="Layer_1"
   inkscape:showpageshadow="2"
   inkscape:pagecheckerboard="0"
   inkscape:deskcolor="#d1d1d1" /><style
   type="text/css"
   id="style5624">
	.st0{clip-path:url(#SVGID_2_);fill:#D40000;}
	.st1{clip-path:url(#SVGID_2_);fill:#FFFFFF;}
</style><g
   id="g5648"
   transform="translate(0,-0.02439039)"><g
     id="g5646"><defs
       id="defs5627"><rect
         id="SVGID_1_"
         y="0"
         width="168"
         height="44"
         x="0" /></defs><clipPath
       id="SVGID_2_"><use
         xlink:href="#SVGID_1_"
         style="overflow:visible"
         id="use5629"
         x="0"
         y="0"
         width="100%"
         height="100%" /></clipPath><rect
       x="0"
       y="0"
       class="st0"
       width="168"
       height="44"
       clip-path="url(#SVGID_2_)"
       id="rect5632"
       style="fill:#d40000" /><polygon
       class="st1"
       points="11.9,33.8 32,33.8 32,37.3 6.7,37.3 6.7,34.1 26.3,10.2 7.2,10.2 7.2,6.7 31.5,6.7 31.5,9.9 "
       clip-path="url(#SVGID_2_)"
       id="polygon5634"
       style="fill:#ffffff" /><path
       class="st1"
       d="M 48.4,10.8 42.7,26 H 54.1 Z M 46,6.7 h 4.7 l 11.8,30.6 h -4.3 l -2.8,-7.8 h -14 l -2.8,7.8 h -4.4 z"
       clip-path="url(#SVGID_2_)"
       id="path5636"
       inkscape:connector-curvature="0"
       style="fill:#ffffff" /><path
       class="st1"
       d="m 71.2,22.7 v 11.2 h 6.7 c 2.3,0 3.9,-0.5 5,-1.4 1.1,-0.9 1.6,-2.3 1.6,-4.2 0,-1.9 -0.5,-3.3 -1.6,-4.2 -1.1,-0.9 -2.8,-1.4 -5,-1.4 z m 0,-12.6 v 9.2 h 6.2 c 2,0 3.6,-0.4 4.6,-1.1 1,-0.8 1.5,-1.9 1.5,-3.5 C 83.5,13.2 83,12 82,11.2 81,10.4 79.5,10.1 77.4,10.1 Z M 67,6.7 h 10.7 c 3.2,0 5.6,0.7 7.4,2 1.7,1.3 2.6,3.2 2.6,5.6 0,1.9 -0.4,3.4 -1.3,4.5 -0.9,1.1 -2.2,1.8 -3.9,2.1 2.1,0.4 3.7,1.3 4.8,2.7 1.1,1.4 1.7,3.1 1.7,5.2 0,2.7 -0.9,4.8 -2.8,6.3 -1.9,1.5 -4.5,2.2 -8,2.2 H 67 Z"
       clip-path="url(#SVGID_2_)"
       id="path5638"
       inkscape:connector-curvature="0"
       style="fill:#ffffff" /><path
       class="st1"
       d="m 99.9,22.7 v 11.2 h 6.7 c 2.2,0 3.9,-0.5 5,-1.4 1.1,-0.9 1.6,-2.3 1.6,-4.2 0,-1.9 -0.5,-3.3 -1.6,-4.2 -1.1,-0.9 -2.8,-1.4 -5,-1.4 z m 0,-12.6 v 9.2 h 6.2 c 2,0 3.6,-0.4 4.6,-1.1 1,-0.8 1.5,-1.9 1.5,-3.5 0,-1.5 -0.5,-2.7 -1.5,-3.5 -1,-0.8 -2.5,-1.1 -4.6,-1.1 z M 95.7,6.7 h 10.7 c 3.2,0 5.6,0.7 7.4,2 1.7,1.3 2.6,3.2 2.6,5.6 0,1.9 -0.4,3.4 -1.3,4.5 -0.9,1.1 -2.2,1.8 -3.9,2.1 2.1,0.4 3.7,1.3 4.8,2.7 1.1,1.4 1.7,3.1 1.7,5.2 0,2.7 -0.9,4.8 -2.8,6.3 -1.9,1.5 -4.5,2.2 -8,2.2 H 95.7 Z"
       clip-path="url(#SVGID_2_)"
       id="path5640"
       inkscape:connector-curvature="0"
       style="fill:#ffffff" /><polygon
       class="st1"
       points="150.5,21 161.3,37.3 156.7,37.3 148.2,24.5 139.7,37.3 135.2,37.3 146,21.1 136.4,6.7 141,6.7 148.3,17.7 155.7,6.7 160.1,6.7 "
       clip-path="url(#SVGID_2_)"
       id="polygon5642"
       style="fill:#ffffff" /><rect
       x="124.3"
       y="6.6999998"
       class="st1"
       width="4.1999998"
       height="30.6"
       clip-path="url(#SVGID_2_)"
       id="rect5644"
       style="fill:#ffffff" /></g></g><g
   aria-label="CERTIFIED PARTNER"
   id="text6202"
   style="font-size:15.858px;line-height:1.25;letter-spacing:0px;word-spacing:0px;stroke-width:0.39645"
   transform="matrix(1.0630336,0,0,1,-0.33091343,0)"><path
     d="m 10.673234,51.211013 q -1.8236703,0 -2.8702983,1.221066 -1.046628,1.221066 -1.046628,3.346038 0,2.109114 0.967338,3.346038 0.983196,1.221066 2.9337303,1.221066 0.729468,0 1.395504,-0.126864 0.666036,-0.126864 1.316214,-0.31716 v 1.236924 q -0.63432,0.23787 -1.316214,0.348876 -0.666036,0.111006 -1.601658,0.111006 -1.7285223,0 -2.8861563,-0.71361 -1.157634,-0.71361 -1.74438,-2.029824 -0.570888,-1.316214 -0.570888,-3.09231 0,-1.712664 0.618462,-3.01302 0.63432,-1.316214 1.855386,-2.045682 1.221066,-0.745326 2.9654463,-0.745326 1.791954,0 3.124026,0.666036 l -0.570888,1.205208 q -0.523314,-0.23787 -1.173492,-0.428166 -0.63432,-0.190296 -1.395504,-0.190296 z"
     id="path5806" /><path
     d="M 22.170283,61.439423 H 15.842941 V 50.116811 h 6.327342 v 1.252782 h -4.900122 v 3.536334 h 4.614678 v 1.236924 h -4.614678 v 4.04379 h 4.900122 z"
     id="path5808" /><path
     d="m 27.78401,50.116811 q 2.109114,0 3.108168,0.808758 1.014912,0.7929 1.014912,2.410416 0,0.903906 -0.333018,1.50651 -0.333018,0.602604 -0.856332,0.967338 -0.507456,0.364734 -1.078344,0.55503 l 3.108168,5.07456 h -1.66509 l -2.743434,-4.67811 h -2.251836 v 4.67811 h -1.42722 V 50.116811 Z m -0.07929,1.236924 h -1.617516 v 4.20237 h 1.696806 q 1.379646,0 2.013966,-0.539172 0.63432,-0.55503 0.63432,-1.617516 0,-1.11006 -0.666036,-1.569942 -0.666036,-0.47574 -2.06154,-0.47574 z"
     id="path5810" /><path
     d="m 38.107564,61.439423 h -1.42722 V 51.369593 H 33.14401 v -1.252782 h 8.48403 v 1.252782 h -3.520476 z"
     id="path5812" /><path
     d="m 46.528159,61.439423 h -4.091364 v -0.824616 l 1.332072,-0.301302 v -9.054918 l -1.332072,-0.31716 v -0.824616 h 4.091364 v 0.824616 l -1.332072,0.31716 v 9.054918 l 1.332072,0.301302 z"
     id="path5814" /><path
     d="m 50.143795,61.439423 h -1.42722 V 50.116811 h 6.327342 v 1.252782 h -4.900122 v 4.012074 h 4.59882 v 1.252782 h -4.59882 z"
     id="path5816" /><path
     d="m 60.134319,61.439423 h -4.091364 v -0.824616 l 1.332072,-0.301302 v -9.054918 l -1.332072,-0.31716 v -0.824616 h 4.091364 v 0.824616 l -1.332072,0.31716 v 9.054918 l 1.332072,0.301302 z"
     id="path5818" /><path
     d="M 68.650076,61.439423 H 62.322734 V 50.116811 h 6.327342 v 1.252782 h -4.900122 v 3.536334 h 4.614678 v 1.236924 h -4.614678 v 4.04379 h 4.900122 z"
     id="path5820" /><path
     d="m 80.210553,55.667111 q 0,2.870298 -1.569942,4.329234 -1.554084,1.443078 -4.345092,1.443078 H 71.139778 V 50.116811 h 3.488759 q 1.696806,0 2.949588,0.63432 1.26864,0.63432 1.950534,1.871244 0.681894,1.236924 0.681894,3.044736 z m -1.50651,0.04757 q 0,-2.267694 -1.125918,-3.314322 -1.11006,-1.062486 -3.155742,-1.062486 h -1.855386 v 8.88048 h 1.538226 q 4.59882,0 4.59882,-4.503672 z"
     id="path5822" /><path
     d="m 89.836357,50.116811 q 2.22012,0 3.235032,0.87219 1.014912,0.87219 1.014912,2.45799 0,0.935622 -0.428166,1.760238 -0.412308,0.808758 -1.411362,1.316214 -0.983196,0.507456 -2.680002,0.507456 h -1.300356 v 4.408524 h -1.42722 V 50.116811 Z m -0.126864,1.221066 h -1.443078 v 4.471956 h 1.141776 q 1.617516,0 2.410416,-0.523314 0.7929,-0.523314 0.7929,-1.776096 0,-1.094202 -0.71361,-1.633374 -0.697752,-0.539172 -2.188404,-0.539172 z"
     id="path5824" /><path
     d="m 102.74477,61.439423 -1.36379,-3.504618 h -4.48781 l -1.34793,3.504618 h -1.443078 l 4.424382,-11.370186 h 1.284498 l 4.408528,11.370186 z m -1.79195,-4.773258 -1.268642,-3.425328 q -0.04757,-0.126864 -0.15858,-0.459882 -0.111006,-0.333018 -0.222012,-0.681894 -0.09515,-0.364734 -0.15858,-0.55503 -0.126864,0.491598 -0.269586,0.967338 -0.126864,0.459882 -0.222012,0.729468 l -1.284498,3.425328 z"
     id="path5826" /><path
     d="m 108.89768,50.116811 q 2.10911,0 3.10816,0.808758 1.01492,0.7929 1.01492,2.410416 0,0.903906 -0.33302,1.50651 -0.33302,0.602604 -0.85633,0.967338 -0.50746,0.364734 -1.07835,0.55503 l 3.10817,5.07456 h -1.66509 l -2.74343,-4.67811 h -2.25184 v 4.67811 h -1.42722 V 50.116811 Z m -0.0793,1.236924 h -1.61752 v 4.20237 h 1.69681 q 1.37964,0 2.01396,-0.539172 0.63432,-0.55503 0.63432,-1.617516 0,-1.11006 -0.66603,-1.569942 -0.66604,-0.47574 -2.06154,-0.47574 z"
     id="path5828" /><path
     d="m 119.22123,61.439423 h -1.42722 v -10.06983 h -3.53634 v -1.252782 h 8.48403 v 1.252782 h -3.52047 z"
     id="path5830" /><path
     d="m 133.43,61.439423 h -1.66509 l -6.05776,-9.403794 h -0.0634 q 0.0317,0.55503 0.0793,1.379646 0.0476,0.824616 0.0476,1.696806 v 6.327342 h -1.31621 V 50.116811 h 1.64923 l 6.0419,9.372078 h 0.0634 q -0.0159,-0.253728 -0.0476,-0.761184 -0.0159,-0.507456 -0.0476,-1.094202 -0.0159,-0.602604 -0.0159,-1.125918 V 50.116811 H 133.43 Z"
     id="path5832" /><path
     d="m 142.83379,61.439423 h -6.32734 V 50.116811 h 6.32734 v 1.252782 h -4.90012 v 3.536334 h 4.61467 v 1.236924 h -4.61467 v 4.04379 h 4.90012 z"
     id="path5834" /><path
     d="m 148.44752,50.116811 q 2.10911,0 3.10817,0.808758 1.01491,0.7929 1.01491,2.410416 0,0.903906 -0.33302,1.50651 -0.33302,0.602604 -0.85633,0.967338 -0.50746,0.364734 -1.07834,0.55503 l 3.10816,5.07456 h -1.66509 l -2.74343,-4.67811 h -2.25184 v 4.67811 h -1.42722 V 50.116811 Z m -0.0793,1.236924 h -1.61752 v 4.20237 h 1.69681 q 1.37965,0 2.01397,-0.539172 0.63432,-0.55503 0.63432,-1.617516 0,-1.11006 -0.66604,-1.569942 -0.66604,-0.47574 -2.06154,-0.47574 z"
     id="path5836" /></g>
</svg>
